# AST/ASF file generated using VICON BodyLanguage
# -----------------------------------------------
:version 1.10
:name VICON
:units
  mass 1.0
  length 0.45
  angle deg
:documentation
   .ast/.asf automatically generated from VICON data using
   VICON BodyBuilder and BodyLanguage model FoxedUp or BRILLIANT.MOD
:root
   order TX TY TZ RX RY RZ
   axis XYZ
   position 0 0 0  
   orientation 0 0 0 
:bonedata
  begin
     id 1 
     name lhipjoint
     direction 0.561001 -0.76473 0.316963 
     length 2.4722 
     axis 0 0 0  XYZ
  end
  begin
     id 2 
     name lfemur
     direction 0.34202 -0.939693 0  
     length 7.59403  
     axis 0 0 20  XYZ
    dof rx ry rz
    limits (-160.0 20.0)
           (-70.0 70.0)
           (-60.0 70.0)
  end
  begin
     id 3 
     name ltibia
     direction 0.34202 -0.939693 0   
     length 7.89655   
     axis 0 0 20   XYZ
    dof rx
    limits (-10.0 170.0)
  end
  begin
     id 4 
     name lfoot
     direction 0.061296 -0.168409 0.98381   
     length 2.73287   
     axis -90 7.62852e-016 20   XYZ
    dof rx rz
    limits (-45.0 90.0)
           (-70.0 20.0)
  end
  begin
     id 5 
     name ltoes
     direction 1.53547e-011 -4.21984e-011 1   
     length 1.37057   
     axis -90 7.62852e-016 20   XYZ
    dof rx
    limits (-90.0 20.0)
  end
  begin
     id 6 
     name rhipjoint
     direction -0.559611 -0.765599 0.317323   
     length 2.46939  
     axis 0 0 0  XYZ 
  end
  begin
     id 7 
     name rfemur
     direction -0.34202 -0.939693 0   
     length 7.53712   
     axis 0 0 -20   XYZ
    dof rx ry rz
    limits (-160.0 20.0)
           (-70.0 70.0)
           (-70.0 60.0)
  end
  begin
     id 8 
     name rtibia
     direction -0.34202 -0.939693 0   
     length 8.12549   
     axis 0 0 -20   XYZ
    dof rx
    limits (-10.0 170.0)
 end
 begin
     id 9 
     name rfoot
     direction -0.066984 -0.184037 0.980634   
     length 2.67541  
     axis -90 -7.62852e-016 -20   XYZ
    dof rx rz
    limits (-45.0 90.0)
           (-20.0 70.0)
  end
  begin
     id 10 
     name rtoes
     direction -1.53549e-011 -4.21786e-011 1   
     length 1.34085   
     axis -90 -7.62852e-016 -20   XYZ
    dof rx
    limits (-90.0 20.0)
  end
  begin
     id 11 
     name lowerback
     direction -0.0522728 0.992594 -0.109658   
     length 2.05633   
     axis 0 0 0   XYZ
    dof rx ry rz
    limits (-20.0 45.0)
           (-30.0 30.0)
           (-30.0 30.0)
  end
  begin
     id 12 
     name upperback
     direction 0.00589338 0.999977 0.00335704   
     length 2.05845   
     axis 0 0 0   XYZ
    dof rx ry rz
    limits (-20.0 45.0)
           (-30.0 30.0)
           (-30.0 30.0)
  end
  begin
     id 13 
     name thorax
     direction 0.0292928 0.998059 0.0549487   
     length 2.09281   
     axis 0 0 0   XYZ
    dof rx ry rz
    limits (-20.0 45.0)
           (-30.0 30.0)
           (-30.0 30.0)
  end
  begin
     id 14 
     name lowerneck
     direction 0.0356368 0.980775 0.191858   
     length 1.84767   
     axis 0 0 0   XYZ
    dof rx ry rz
    limits (-20.0 45.0)
           (-30.0 30.0)
           (-30.0 30.0)
  end
  begin
     id 15 
     name upperneck
     direction -0.0227605 0.98931 -0.14404   
     length 1.89582   
     axis 0 0 0   XYZ
    dof rx ry rz
    limits (-20.0 45.0)
           (-30.0 30.0)
           (-30.0 30.0)
  end
  begin
     id 16
     name head
     direction -0.00932985 0.997511 -0.0698904  
     length 1.90213  
     axis 0 0 0   XYZ
    dof rx ry rz
    limits (-20.0 45.0)
           (-30.0 30.0)
           (-30.0 30.0)
  end
  begin
     id 17 
     name lclavicle
     direction 0.873442 0.479511 0.0846686  
     length 3.41193  
     axis 0 0 0   XYZ
    dof ry rz
    limits (-20.0 10.0)
           (0.0 20.0)
  end
  begin
     id 18 
     name lhumerus
     direction 1 -4.4897e-011 -5.62117e-018   
     length 5.59864   
     axis 180 -30 -90   XYZ
    dof rx ry rz
    limits (-60.0 90.0)
           (-90.0 90.0)
           (-90.0 90.0)
  end
  begin
     id 19
     name lradius
     direction 1 -4.48966e-011 -6.26295e-027   
     length 3.59542   
     axis 180 -30 -90   XYZ
    dof rx
    limits (-10.0 170.0)
  end
  begin
     id 20
     name lwrist
     direction 1 -4.48947e-011 -1.74096e-026   
     length 1.79771   
     axis 1.04567e-014 90 90   XYZ
    dof ry
    limits (-180.0 0.0)
 end
  begin
     id 21 
     name lhand
     direction 1 -4.49085e-011 -3.48469e-026   
     length 0.572014   
     axis 2.22196e-014 90 90   XYZ
    dof rx rz
    limits (-90.0 90.0)
           (-45.0 45.0)
  end
  begin
     id 22 
     name lfingers
     direction 1 -4.48884e-011 -6.96135e-026   
     length 0.461173   
     axis 4.44383e-014 90 90   XYZ
    dof rx
    limits (0.0 90.0)
  end
  begin
     id 23
     name lthumb
     direction 0.707107 -6.34976e-011 0.707107   
     length 0.662154   
     axis -90 45 -5.4397e-014   XYZ
    dof rx rz
    limits (-45.0 45.0)
           (-45.0 45.0)
  end
  begin
     id 24 
     name rclavicle
     direction -0.890242 0.443271 0.104786   
     length 3.46753  
     axis 0 0 0   XYZ 
    dof ry rz
    limits (-10.0 20.0)
           (-20.0 0.0)
  end
  begin
     id 25 
     name rhumerus
     direction -1 -4.48963e-011 -5.41723e-018  
     length 5.8094   
     axis 180 30 90   XYZ
    dof rx ry rz
    limits (-90.0 60.0)
           (-90.0 90.0)
           (-90.0 90.0)
  end
  begin
     id 26 
     name rradius
     direction -1 -4.48958e-011 -6.51059e-027   
     length 3.66953   
     axis 180 30 90   XYZ
    dof rx
    limits (-10.0 170.0)
  end
  begin
     id 27 
     name rwrist
     direction -1 -4.48975e-011 -1.74124e-026   
     length 1.83476   
     axis 1.04567e-014 -90 -90   XYZ
    dof ry
    limits (-180.0 0.0)
  end
  begin
     id 28
     name rhand
     direction -1 -4.49013e-011 -3.48326e-026   
     length 0.57843   
     axis 2.22196e-014 -90 -90   XYZ
    dof rx rz
    limits (-90.0 90.0)
           (-45.0 45.0)
  end
  begin
     id 29
     name rfingers
     direction -1 -4.49023e-011 -6.9669e-026   
     length 0.466345   
     axis 4.44383e-014 -90 -90   XYZ
    dof rx
    limits (0.0 90.0)
  end
  begin
     id 30
     name rthumb
     direction -0.707107 -6.34926e-011 0.707107   
     length 0.669581   
     axis -90 -45 5.4397e-014   XYZ
    dof rx rz
    limits (-45.0 45.0)
           (-45.0 45.0)
  end
:hierarchy
  begin
    root lhipjoint rhipjoint lowerback
    lhipjoint lfemur
    lfemur ltibia
    ltibia lfoot
    lfoot ltoes
    rhipjoint rfemur
    rfemur rtibia
    rtibia rfoot
    rfoot rtoes
    lowerback upperback
    upperback thorax
    thorax lowerneck lclavicle rclavicle
    lowerneck upperneck
    upperneck head
    lclavicle lhumerus
    lhumerus lradius
    lradius lwrist
    lwrist lhand lthumb
    lhand lfingers
    rclavicle rhumerus
    rhumerus rradius
    rradius rwrist
    rwrist rhand rthumb
    rhand rfingers
  end

#!OML:ASF H:\SkateBoarding\Project 1\Capture day 1\Session 1\Skater.ASF
:FULLY-SPECIFIED
:DEGREES
195
root 6.30687 15.8663 -2.40612 22.3261 24.0677 3.68529
lowerback 16.2141 0.505727 -7.98436
upperback -0.22118 -0.70609 1.37798
thorax -9.27529 0.0811093 6.22235
lowerneck -24.5872 -3.26592 -1.56233
upperneck 31.8504 -5.52891 4.02767
head 15.5216 -1.85241 0.864881
rclavicle -4.26393e-014 -2.28602e-014
rhumerus 22.0528 34.5153 -24.7568
rradius 55.7678
rwrist -12.4205
rhand -37.8953 -11.6215
rfingers 7.12502
rthumb -10.9382 -41.3166
lclavicle -4.26393e-014 -2.28602e-014
lhumerus 30.6487 3.02734 32.1345
lradius 87.831
lwrist 18.4334
lhand -44.3088 2.39107
lfingers 7.12502
lthumb -17.1184 31.6569
rfemur -85.8786 -8.86955 15.4198
rtibia 89.8462
rfoot -14.0864 22.1555
rtoes -17.192
lfemur 28.9056 -14.6462 -9.00865
ltibia 1.27222e-014
lfoot -28.3089 8.35219
ltoes 21.7125
196
root 6.27381 15.99 -1.91659 22.7274 24.7538 4.1009
lowerback 15.8646 0.170831 -8.26834
upperback -0.38577 -1.19409 1.22892
thorax -9.17642 -0.143251 6.32681
lowerneck -24.5973 -3.12176 -1.54861
upperneck 32.1533 -5.34828 4.0593
head 15.6616 -1.76441 0.916236
rclavicle -4.09496e-014 4.63168e-014
rhumerus 21.6364 34.3144 -25.0739
rradius 56.9698
rwrist -12.9562
rhand -37.8937 -11.1233
rfingers 7.12502
rthumb -10.9367 -40.8185
lclavicle -4.09496e-014 4.63168e-014
lhumerus 31.2731 3.73821 32.7612
lradius 87.5445
lwrist 17.9122
lhand -44.3871 1.67692
lfingers 7.12502
lthumb -17.1938 30.9362
rfemur -85.0987 -9.6003 15.965
rtibia 89.3345
rfoot -14.9368 22.1081
rtoes -18.2021
lfemur 28.9803 -14.7517 -9.03428
ltibia 1.90833e-014
lfoot -31.1457 12.7534
ltoes 20.6066
197
root 6.23381 16.1253 -1.42203 23.158 25.5615 4.58755
lowerback 15.4844 -0.0526463 -8.59691
upperback -0.497292 -1.53959 1.03395
thorax -9.02358 -0.303399 6.36699
lowerneck -24.5088 -3.13479 -1.43295
upperneck 32.3072 -5.42843 4.07527
head 15.7154 -1.77778 0.889647
rclavicle -4.72611e-014 -4.81059e-014
rhumerus 20.5674 33.7412 -25.8214
rradius 58.2598
rwrist -13.3346
rhand -37.9945 -10.8155
rfingers 7.12502
rthumb -11.0339 -40.5055
lclavicle -4.72611e-014 -4.81059e-014
lhumerus 32.2057 4.14615 33.7345
lradius 87.2022
lwrist 17.7789
lhand -44.5712 1.4948
lfingers 7.12502
lthumb -17.371 30.7386
rfemur -84.1572 -10.318 16.4123
rtibia 88.7527
rfoot -15.7953 22.1309
rtoes -18.7021
lfemur 28.7135 -15.0352 -8.9473
ltibia 4.77083e-014
lfoot -31.7039 18.9085
ltoes 18.1992
198
root 6.19171 16.2531 -0.94035 23.513 26.49 5.069
lowerback 15.2653 -0.308447 -8.82995
upperback -0.548377 -1.91671 0.874929
thorax -8.88933 -0.483327 6.39997
lowerneck -24.5452 -3.16879 -1.5059
upperneck 32.4653 -5.50621 4.21632
head 15.812 -1.79317 0.9481
rclavicle -6.36111e-015 -8.64713e-015
rhumerus 19.3937 33.0139 -26.7303
rradius 59.5204
rwrist -13.1028
rhand -38.2854 -10.4308
rfingers 7.12502
rthumb -11.3146 -40.1056
lclavicle -6.36111e-015 -8.64713e-015
lhumerus 33.0647 4.43498 35.0754
lradius 86.754
lwrist 17.8867
lhand -44.2473 0.645618
lfingers 7.12502
lthumb -17.0593 29.9166
rfemur -83.132 -11.0612 16.7861
rtibia 88.1334
rfoot -16.6132 22.074
rtoes -19.2632
lfemur 28.4656 -15.4658 -8.74155
ltibia 5.725e-014
lfoot -30.5081 21.9646
ltoes 18.443
199
root 6.14883 16.3799 -0.464748 23.8292 27.4724 5.54391
lowerback 15.0323 -0.444691 -9.09538
upperback -0.528858 -2.12993 0.765033
thorax -8.69412 -0.587842 6.46558
lowerneck -24.5825 -3.27917 -1.47313
upperneck 32.5171 -5.68914 4.23234
head 15.8528 -1.85886 0.911976
rclavicle -1.39149e-015 -1.94809e-014
rhumerus 17.8556 32.0344 -27.7043
rradius 60.7732
rwrist -12.773
rhand -38.5848 -10.0877
rfingers 7.12502
rthumb -11.6033 -39.7464
lclavicle -1.39149e-015 -1.94809e-014
lhumerus 34.1122 4.46818 36.8131
lradius 86.1822
lwrist 18.1605
lhand -44.2518 0.435292
lfingers 7.12502
lthumb -17.0636 29.7059
rfemur -81.9979 -11.7606 17.1055
rtibia 87.4426
rfoot -17.3491 22.0576
rtoes -19.5887
lfemur 28.1588 -15.9414 -8.52703
ltibia 4.45278e-014
lfoot -27.0856 25.9944
ltoes 17.2508
